<?xml version="1.0" encoding="UTF-8"?> <svg xmlns="http://www.w3.org/2000/svg" width="220" height="32" viewBox="0 0 220 32" fill="none"><path d="M87.4725 5.6899V26.0251H84.39V10.9723C84.3115 11.0466 84.2316 11.1224 84.15 11.199C82.3445 12.8967 79.7945 15.1632 76.8204 17.4334C73.8506 19.7004 70.4287 21.9933 66.88 23.7248C63.3454 25.4493 59.5856 26.6661 55.9667 26.6661C52.8979 26.6661 50.5277 25.3155 48.9635 23.2752C47.4318 21.2772 46.7184 18.6876 46.7247 16.174C46.7311 13.6602 47.4576 11.0738 48.99 9.07938C50.554 7.04378 52.9163 5.68991 55.9667 5.6899H87.4725ZM55.9667 8.82816C53.9059 8.82817 52.4236 9.70405 51.4179 11.013C50.3805 12.3632 49.8123 14.2363 49.8074 16.182C49.8024 18.1278 50.3611 19.9976 51.3934 21.3443C52.3932 22.6485 53.879 23.5277 55.9667 23.5277C58.9435 23.5277 62.2273 22.5147 65.5478 20.8946C68.8541 19.2815 72.099 17.1149 74.9713 14.9224C77.8393 12.7332 80.3071 10.5403 82.0587 8.89338C82.0819 8.87159 82.1048 8.84975 82.1277 8.82816H55.9667Z" fill="#8642FF"></path><path d="M131.097 26.0251H128.014C128.014 26.0251 128.025 16.3953 128.025 10.8792C127.947 10.9536 128.107 10.8026 128.025 10.8792C126.219 12.5769 123.419 15.1637 120.445 17.4339C117.475 19.7009 114.053 21.9938 110.504 23.7253C106.97 25.4498 103.21 26.6666 99.5909 26.6666C96.5621 26.6666 94.2117 25.3509 92.646 23.3513C91.1124 21.3925 90.3793 18.8483 90.3496 16.3661V5.6904H93.4321V16.328L93.4358 16.5076C93.4912 18.3622 94.0585 20.1203 95.0566 21.395C96.0548 22.6699 97.5281 23.5282 99.5909 23.5282C102.568 23.5282 105.851 22.5152 109.172 20.8951C112.478 19.282 115.723 17.1154 118.595 14.9229C121.463 12.7337 123.219 11.5757 125.683 8.89389C126.778 7.70177 128.243 5.6904 128.243 5.6904H131.097V26.0251Z" fill="#8642FF"></path><path d="M134.036 5.68993V26.0251H137.119V10.9723C137.197 11.0466 137.277 11.1223 137.359 11.199C139.164 12.8966 141.714 15.1631 144.688 17.4333C147.658 19.7003 151.08 21.9933 154.629 23.7247C158.163 25.4492 161.923 26.666 165.542 26.666C168.611 26.666 170.981 25.3155 172.545 23.2751C174.077 21.2771 174.79 18.6875 174.784 16.1739C174.778 13.6601 174.051 11.0737 172.519 9.07931C170.955 7.04371 168.592 5.68984 165.542 5.68982L134.036 5.68993ZM165.542 8.82808C167.603 8.8281 169.085 9.70398 170.091 11.0129C171.128 12.3632 171.696 14.2363 171.701 16.182C171.706 18.1278 171.148 19.9976 170.115 21.3442C169.116 22.6484 167.63 23.5276 165.542 23.5276C162.565 23.5276 159.282 22.5146 155.961 20.8945C152.655 19.2814 149.41 17.1149 146.538 14.9224C143.669 12.7331 141.202 10.5402 139.45 8.89331C139.427 8.87151 139.404 8.84968 139.381 8.82808H165.542Z" fill="#8642FF"></path><path d="M217.89 5.68961V26.0251H214.808V10.972C214.729 11.0464 214.649 11.1221 214.568 11.1987C212.762 12.8964 210.212 15.1629 207.238 17.4331C204.268 19.7001 200.846 21.9931 197.298 23.7245C193.763 25.449 190.003 26.6658 186.384 26.6658C183.316 26.6658 180.945 25.3152 179.381 23.2749C177.849 21.2769 177.136 18.6873 177.142 16.1737C177.149 13.6599 177.875 11.0735 179.408 9.0791C180.972 7.0435 183.334 5.68962 186.384 5.68961H217.89ZM186.384 8.82787C184.324 8.82788 182.841 9.70376 181.836 11.0127C180.798 12.3629 180.23 14.2361 180.225 16.1817C180.22 18.1276 180.779 19.9974 181.811 21.344C182.811 22.6482 184.297 23.5274 186.384 23.5274C189.361 23.5274 192.645 22.5144 195.965 20.8943C199.272 19.2812 202.517 17.1147 205.389 14.9221C208.257 12.7329 210.725 10.54 212.476 8.89309C212.5 8.8713 212.523 8.84946 212.545 8.82787H186.384Z" fill="#8642FF"></path><path d="M3.66797 5.97474L6.7506 5.97474C6.7506 5.97474 6.73962 15.6046 6.73962 21.1206C6.6581 21.1972 6.81811 21.0463 6.73962 21.1206C8.54519 19.4229 11.3459 16.8361 14.3201 14.5659C17.2899 12.299 20.7118 10.006 24.2606 8.27454C27.7951 6.55006 31.5548 5.33327 35.1738 5.33325C38.2025 5.33325 40.5529 6.64898 42.1186 8.64857C43.6522 10.6073 44.3853 13.1515 44.415 15.6338V26.3094H41.3325V15.6718L41.3288 15.4922C41.2735 13.6377 40.7061 11.8795 39.7081 10.6049C38.7098 9.32991 37.2365 8.47166 35.1738 8.47166C32.1969 8.47167 28.9133 9.48465 25.5928 11.1047C22.2865 12.7179 19.0416 14.8844 16.1693 17.0769C13.3013 19.2661 11.5457 20.4241 9.08188 23.1059C7.9867 24.2981 6.52191 26.3094 6.52191 26.3094H3.66797L3.66797 5.97474Z" fill="#8642FF"></path></svg>
